<mxfile host="app.diagrams.net" modified="2021-01-21T09:38:26.636Z" agent="5.0 (Windows)" etag="nwhGTcsIesKbTkV2MvjU" version="14.2.6" type="github">
  <diagram id="ABO_C1dVIs4_mpS2Vgjt" name="Page-1">
    <mxGraphModel dx="2062" dy="1123" grid="1" gridSize="10" guides="1" tooltips="1" connect="1" arrows="1" fold="1" page="1" pageScale="1" pageWidth="827" pageHeight="1169" math="0" shadow="0">
      <root>
        <mxCell id="0" />
        <mxCell id="1" parent="0" />
        <mxCell id="0qfEpNYiTU8af2PPR3kj-1" value="User" style="shape=table;startSize=30;container=1;collapsible=1;childLayout=tableLayout;fixedRows=1;rowLines=0;fontStyle=1;align=center;resizeLast=1;" vertex="1" parent="1">
          <mxGeometry x="80" y="40" width="205" height="330" as="geometry" />
        </mxCell>
        <mxCell id="0qfEpNYiTU8af2PPR3kj-2" value="" style="shape=partialRectangle;collapsible=0;dropTarget=0;pointerEvents=0;fillColor=none;top=0;left=0;bottom=1;right=0;points=[[0,0.5],[1,0.5]];portConstraint=eastwest;" vertex="1" parent="0qfEpNYiTU8af2PPR3kj-1">
          <mxGeometry y="30" width="205" height="30" as="geometry" />
        </mxCell>
        <mxCell id="0qfEpNYiTU8af2PPR3kj-3" value="PK,FK1" style="shape=partialRectangle;connectable=0;fillColor=none;top=0;left=0;bottom=0;right=0;fontStyle=1;overflow=hidden;" vertex="1" parent="0qfEpNYiTU8af2PPR3kj-2">
          <mxGeometry width="60" height="30" as="geometry" />
        </mxCell>
        <mxCell id="0qfEpNYiTU8af2PPR3kj-4" value="UserID" style="shape=partialRectangle;connectable=0;fillColor=none;top=0;left=0;bottom=0;right=0;align=left;spacingLeft=6;fontStyle=5;overflow=hidden;" vertex="1" parent="0qfEpNYiTU8af2PPR3kj-2">
          <mxGeometry x="60" width="145" height="30" as="geometry" />
        </mxCell>
        <mxCell id="0qfEpNYiTU8af2PPR3kj-57" value="" style="shape=partialRectangle;collapsible=0;dropTarget=0;pointerEvents=0;fillColor=none;top=0;left=0;bottom=1;right=0;points=[[0,0.5],[1,0.5]];portConstraint=eastwest;" vertex="1" parent="0qfEpNYiTU8af2PPR3kj-1">
          <mxGeometry y="60" width="205" height="30" as="geometry" />
        </mxCell>
        <mxCell id="0qfEpNYiTU8af2PPR3kj-58" value="FK2" style="shape=partialRectangle;connectable=0;fillColor=none;top=0;left=0;bottom=0;right=0;fontStyle=1;overflow=hidden;" vertex="1" parent="0qfEpNYiTU8af2PPR3kj-57">
          <mxGeometry width="60" height="30" as="geometry" />
        </mxCell>
        <mxCell id="0qfEpNYiTU8af2PPR3kj-59" value="UserName" style="shape=partialRectangle;connectable=0;fillColor=none;top=0;left=0;bottom=0;right=0;align=left;spacingLeft=6;fontStyle=5;overflow=hidden;" vertex="1" parent="0qfEpNYiTU8af2PPR3kj-57">
          <mxGeometry x="60" width="145" height="30" as="geometry" />
        </mxCell>
        <mxCell id="0qfEpNYiTU8af2PPR3kj-129" style="shape=partialRectangle;collapsible=0;dropTarget=0;pointerEvents=0;fillColor=none;top=0;left=0;bottom=1;right=0;points=[[0,0.5],[1,0.5]];portConstraint=eastwest;" vertex="1" parent="0qfEpNYiTU8af2PPR3kj-1">
          <mxGeometry y="90" width="205" height="30" as="geometry" />
        </mxCell>
        <mxCell id="0qfEpNYiTU8af2PPR3kj-130" style="shape=partialRectangle;connectable=0;fillColor=none;top=0;left=0;bottom=0;right=0;fontStyle=1;overflow=hidden;" vertex="1" parent="0qfEpNYiTU8af2PPR3kj-129">
          <mxGeometry width="60" height="30" as="geometry" />
        </mxCell>
        <mxCell id="0qfEpNYiTU8af2PPR3kj-131" value="Password" style="shape=partialRectangle;connectable=0;fillColor=none;top=0;left=0;bottom=0;right=0;align=left;spacingLeft=6;fontStyle=5;overflow=hidden;" vertex="1" parent="0qfEpNYiTU8af2PPR3kj-129">
          <mxGeometry x="60" width="145" height="30" as="geometry" />
        </mxCell>
        <mxCell id="0qfEpNYiTU8af2PPR3kj-92" style="shape=partialRectangle;collapsible=0;dropTarget=0;pointerEvents=0;fillColor=none;top=0;left=0;bottom=1;right=0;points=[[0,0.5],[1,0.5]];portConstraint=eastwest;" vertex="1" parent="0qfEpNYiTU8af2PPR3kj-1">
          <mxGeometry y="120" width="205" height="30" as="geometry" />
        </mxCell>
        <mxCell id="0qfEpNYiTU8af2PPR3kj-93" value="FK4" style="shape=partialRectangle;connectable=0;fillColor=none;top=0;left=0;bottom=0;right=0;fontStyle=1;overflow=hidden;" vertex="1" parent="0qfEpNYiTU8af2PPR3kj-92">
          <mxGeometry width="60" height="30" as="geometry" />
        </mxCell>
        <mxCell id="0qfEpNYiTU8af2PPR3kj-94" value="Guidatore" style="shape=partialRectangle;connectable=0;fillColor=none;top=0;left=0;bottom=0;right=0;align=left;spacingLeft=6;fontStyle=5;overflow=hidden;" vertex="1" parent="0qfEpNYiTU8af2PPR3kj-92">
          <mxGeometry x="60" width="145" height="30" as="geometry" />
        </mxCell>
        <mxCell id="0qfEpNYiTU8af2PPR3kj-132" style="shape=partialRectangle;collapsible=0;dropTarget=0;pointerEvents=0;fillColor=none;top=0;left=0;bottom=1;right=0;points=[[0,0.5],[1,0.5]];portConstraint=eastwest;" vertex="1" parent="0qfEpNYiTU8af2PPR3kj-1">
          <mxGeometry y="150" width="205" height="30" as="geometry" />
        </mxCell>
        <mxCell id="0qfEpNYiTU8af2PPR3kj-133" style="shape=partialRectangle;connectable=0;fillColor=none;top=0;left=0;bottom=0;right=0;fontStyle=1;overflow=hidden;strokeColor=none;" vertex="1" parent="0qfEpNYiTU8af2PPR3kj-132">
          <mxGeometry width="60" height="30" as="geometry" />
        </mxCell>
        <mxCell id="0qfEpNYiTU8af2PPR3kj-134" value="Nome" style="shape=partialRectangle;connectable=0;top=0;left=0;bottom=0;right=0;align=left;spacingLeft=6;fontStyle=5;overflow=hidden;strokeColor=none;fillColor=none;" vertex="1" parent="0qfEpNYiTU8af2PPR3kj-132">
          <mxGeometry x="60" width="145" height="30" as="geometry" />
        </mxCell>
        <mxCell id="0qfEpNYiTU8af2PPR3kj-135" style="shape=partialRectangle;collapsible=0;dropTarget=0;pointerEvents=0;fillColor=none;top=0;left=0;bottom=1;right=0;points=[[0,0.5],[1,0.5]];portConstraint=eastwest;" vertex="1" parent="0qfEpNYiTU8af2PPR3kj-1">
          <mxGeometry y="180" width="205" height="30" as="geometry" />
        </mxCell>
        <mxCell id="0qfEpNYiTU8af2PPR3kj-136" style="shape=partialRectangle;connectable=0;fillColor=none;top=0;left=0;bottom=0;right=0;fontStyle=1;overflow=hidden;" vertex="1" parent="0qfEpNYiTU8af2PPR3kj-135">
          <mxGeometry width="60" height="30" as="geometry" />
        </mxCell>
        <mxCell id="0qfEpNYiTU8af2PPR3kj-137" value="Cognome" style="shape=partialRectangle;connectable=0;fillColor=none;top=0;left=0;bottom=0;right=0;align=left;spacingLeft=6;fontStyle=5;overflow=hidden;" vertex="1" parent="0qfEpNYiTU8af2PPR3kj-135">
          <mxGeometry x="60" width="145" height="30" as="geometry" />
        </mxCell>
        <mxCell id="0qfEpNYiTU8af2PPR3kj-139" style="shape=partialRectangle;collapsible=0;dropTarget=0;pointerEvents=0;fillColor=none;top=0;left=0;bottom=1;right=0;points=[[0,0.5],[1,0.5]];portConstraint=eastwest;" vertex="1" parent="0qfEpNYiTU8af2PPR3kj-1">
          <mxGeometry y="210" width="205" height="30" as="geometry" />
        </mxCell>
        <mxCell id="0qfEpNYiTU8af2PPR3kj-140" style="shape=partialRectangle;connectable=0;fillColor=none;top=0;left=0;bottom=0;right=0;fontStyle=1;overflow=hidden;" vertex="1" parent="0qfEpNYiTU8af2PPR3kj-139">
          <mxGeometry width="60" height="30" as="geometry" />
        </mxCell>
        <mxCell id="0qfEpNYiTU8af2PPR3kj-141" value="DataNascita" style="shape=partialRectangle;connectable=0;fillColor=none;top=0;left=0;bottom=0;right=0;align=left;spacingLeft=6;fontStyle=5;overflow=hidden;" vertex="1" parent="0qfEpNYiTU8af2PPR3kj-139">
          <mxGeometry x="60" width="145" height="30" as="geometry" />
        </mxCell>
        <mxCell id="0qfEpNYiTU8af2PPR3kj-142" style="shape=partialRectangle;collapsible=0;dropTarget=0;pointerEvents=0;fillColor=none;top=0;left=0;bottom=1;right=0;points=[[0,0.5],[1,0.5]];portConstraint=eastwest;" vertex="1" parent="0qfEpNYiTU8af2PPR3kj-1">
          <mxGeometry y="240" width="205" height="30" as="geometry" />
        </mxCell>
        <mxCell id="0qfEpNYiTU8af2PPR3kj-143" style="shape=partialRectangle;connectable=0;fillColor=none;top=0;left=0;bottom=0;right=0;fontStyle=1;overflow=hidden;" vertex="1" parent="0qfEpNYiTU8af2PPR3kj-142">
          <mxGeometry width="60" height="30" as="geometry" />
        </mxCell>
        <mxCell id="0qfEpNYiTU8af2PPR3kj-144" value="email" style="shape=partialRectangle;connectable=0;fillColor=none;top=0;left=0;bottom=0;right=0;align=left;spacingLeft=6;fontStyle=5;overflow=hidden;" vertex="1" parent="0qfEpNYiTU8af2PPR3kj-142">
          <mxGeometry x="60" width="145" height="30" as="geometry" />
        </mxCell>
        <mxCell id="0qfEpNYiTU8af2PPR3kj-161" style="shape=partialRectangle;collapsible=0;dropTarget=0;pointerEvents=0;fillColor=none;top=0;left=0;bottom=1;right=0;points=[[0,0.5],[1,0.5]];portConstraint=eastwest;" vertex="1" parent="0qfEpNYiTU8af2PPR3kj-1">
          <mxGeometry y="270" width="205" height="30" as="geometry" />
        </mxCell>
        <mxCell id="0qfEpNYiTU8af2PPR3kj-162" style="shape=partialRectangle;connectable=0;fillColor=none;top=0;left=0;bottom=0;right=0;fontStyle=1;overflow=hidden;" vertex="1" parent="0qfEpNYiTU8af2PPR3kj-161">
          <mxGeometry width="60" height="30" as="geometry" />
        </mxCell>
        <mxCell id="0qfEpNYiTU8af2PPR3kj-163" value="sesso" style="shape=partialRectangle;connectable=0;fillColor=none;top=0;left=0;bottom=0;right=0;align=left;spacingLeft=6;fontStyle=5;overflow=hidden;" vertex="1" parent="0qfEpNYiTU8af2PPR3kj-161">
          <mxGeometry x="60" width="145" height="30" as="geometry" />
        </mxCell>
        <mxCell id="0qfEpNYiTU8af2PPR3kj-168" style="shape=partialRectangle;collapsible=0;dropTarget=0;pointerEvents=0;fillColor=none;top=0;left=0;bottom=1;right=0;points=[[0,0.5],[1,0.5]];portConstraint=eastwest;" vertex="1" parent="0qfEpNYiTU8af2PPR3kj-1">
          <mxGeometry y="300" width="205" height="30" as="geometry" />
        </mxCell>
        <mxCell id="0qfEpNYiTU8af2PPR3kj-169" style="shape=partialRectangle;connectable=0;fillColor=none;top=0;left=0;bottom=0;right=0;fontStyle=1;overflow=hidden;" vertex="1" parent="0qfEpNYiTU8af2PPR3kj-168">
          <mxGeometry width="60" height="30" as="geometry" />
        </mxCell>
        <mxCell id="0qfEpNYiTU8af2PPR3kj-170" value="numtel" style="shape=partialRectangle;connectable=0;fillColor=none;top=0;left=0;bottom=0;right=0;align=left;spacingLeft=6;fontStyle=5;overflow=hidden;" vertex="1" parent="0qfEpNYiTU8af2PPR3kj-168">
          <mxGeometry x="60" width="145" height="30" as="geometry" />
        </mxCell>
        <mxCell id="0qfEpNYiTU8af2PPR3kj-27" value="ElencoComuni" style="shape=table;startSize=30;container=1;collapsible=1;childLayout=tableLayout;fixedRows=1;rowLines=0;fontStyle=1;align=center;resizeLast=1;" vertex="1" parent="1">
          <mxGeometry x="80" y="390" width="180" height="270" as="geometry">
            <mxRectangle x="80" y="360" width="110" height="30" as="alternateBounds" />
          </mxGeometry>
        </mxCell>
        <mxCell id="0qfEpNYiTU8af2PPR3kj-28" value="" style="shape=partialRectangle;collapsible=0;dropTarget=0;pointerEvents=0;fillColor=none;top=0;left=0;bottom=1;right=0;points=[[0,0.5],[1,0.5]];portConstraint=eastwest;" vertex="1" parent="0qfEpNYiTU8af2PPR3kj-27">
          <mxGeometry y="30" width="180" height="30" as="geometry" />
        </mxCell>
        <mxCell id="0qfEpNYiTU8af2PPR3kj-29" value="PK, FK3" style="shape=partialRectangle;connectable=0;fillColor=none;top=0;left=0;bottom=0;right=0;fontStyle=1;overflow=hidden;" vertex="1" parent="0qfEpNYiTU8af2PPR3kj-28">
          <mxGeometry width="50" height="30" as="geometry" />
        </mxCell>
        <mxCell id="0qfEpNYiTU8af2PPR3kj-30" value="ComuneID" style="shape=partialRectangle;connectable=0;fillColor=none;top=0;left=0;bottom=0;right=0;align=left;spacingLeft=6;fontStyle=5;overflow=hidden;" vertex="1" parent="0qfEpNYiTU8af2PPR3kj-28">
          <mxGeometry x="50" width="130" height="30" as="geometry" />
        </mxCell>
        <mxCell id="0qfEpNYiTU8af2PPR3kj-41" value="" style="shape=partialRectangle;collapsible=0;dropTarget=0;pointerEvents=0;fillColor=none;top=0;left=0;bottom=0;right=0;points=[[0,0.5],[1,0.5]];portConstraint=eastwest;" vertex="1" parent="0qfEpNYiTU8af2PPR3kj-27">
          <mxGeometry y="60" width="180" height="30" as="geometry" />
        </mxCell>
        <mxCell id="0qfEpNYiTU8af2PPR3kj-42" value="" style="shape=partialRectangle;connectable=0;fillColor=none;top=0;left=0;bottom=0;right=0;editable=1;overflow=hidden;" vertex="1" parent="0qfEpNYiTU8af2PPR3kj-41">
          <mxGeometry width="50" height="30" as="geometry" />
        </mxCell>
        <mxCell id="0qfEpNYiTU8af2PPR3kj-43" value="NomeComune" style="shape=partialRectangle;connectable=0;fillColor=none;top=0;left=0;bottom=0;right=0;align=left;spacingLeft=6;overflow=hidden;" vertex="1" parent="0qfEpNYiTU8af2PPR3kj-41">
          <mxGeometry x="50" width="130" height="30" as="geometry" />
        </mxCell>
        <mxCell id="0qfEpNYiTU8af2PPR3kj-37" value="" style="shape=partialRectangle;collapsible=0;dropTarget=0;pointerEvents=0;fillColor=none;top=0;left=0;bottom=0;right=0;points=[[0,0.5],[1,0.5]];portConstraint=eastwest;" vertex="1" parent="0qfEpNYiTU8af2PPR3kj-27">
          <mxGeometry y="90" width="180" height="30" as="geometry" />
        </mxCell>
        <mxCell id="0qfEpNYiTU8af2PPR3kj-38" value="" style="shape=partialRectangle;connectable=0;fillColor=none;top=0;left=0;bottom=0;right=0;editable=1;overflow=hidden;" vertex="1" parent="0qfEpNYiTU8af2PPR3kj-37">
          <mxGeometry width="50" height="30" as="geometry" />
        </mxCell>
        <mxCell id="0qfEpNYiTU8af2PPR3kj-39" value="CAP" style="shape=partialRectangle;connectable=0;fillColor=none;top=0;left=0;bottom=0;right=0;align=left;spacingLeft=6;overflow=hidden;" vertex="1" parent="0qfEpNYiTU8af2PPR3kj-37">
          <mxGeometry x="50" width="130" height="30" as="geometry" />
        </mxCell>
        <mxCell id="0qfEpNYiTU8af2PPR3kj-31" value="" style="shape=partialRectangle;collapsible=0;dropTarget=0;pointerEvents=0;fillColor=none;top=0;left=0;bottom=0;right=0;points=[[0,0.5],[1,0.5]];portConstraint=eastwest;" vertex="1" parent="0qfEpNYiTU8af2PPR3kj-27">
          <mxGeometry y="120" width="180" height="30" as="geometry" />
        </mxCell>
        <mxCell id="0qfEpNYiTU8af2PPR3kj-32" value="" style="shape=partialRectangle;connectable=0;fillColor=none;top=0;left=0;bottom=0;right=0;editable=1;overflow=hidden;" vertex="1" parent="0qfEpNYiTU8af2PPR3kj-31">
          <mxGeometry width="50" height="30" as="geometry" />
        </mxCell>
        <mxCell id="0qfEpNYiTU8af2PPR3kj-33" value="Coord X" style="shape=partialRectangle;connectable=0;fillColor=none;top=0;left=0;bottom=0;right=0;align=left;spacingLeft=6;overflow=hidden;" vertex="1" parent="0qfEpNYiTU8af2PPR3kj-31">
          <mxGeometry x="50" width="130" height="30" as="geometry" />
        </mxCell>
        <mxCell id="0qfEpNYiTU8af2PPR3kj-34" value="" style="shape=partialRectangle;collapsible=0;dropTarget=0;pointerEvents=0;fillColor=none;top=0;left=0;bottom=0;right=0;points=[[0,0.5],[1,0.5]];portConstraint=eastwest;" vertex="1" parent="0qfEpNYiTU8af2PPR3kj-27">
          <mxGeometry y="150" width="180" height="30" as="geometry" />
        </mxCell>
        <mxCell id="0qfEpNYiTU8af2PPR3kj-35" value="" style="shape=partialRectangle;connectable=0;fillColor=none;top=0;left=0;bottom=0;right=0;editable=1;overflow=hidden;" vertex="1" parent="0qfEpNYiTU8af2PPR3kj-34">
          <mxGeometry width="50" height="30" as="geometry" />
        </mxCell>
        <mxCell id="0qfEpNYiTU8af2PPR3kj-36" value="Coord Y" style="shape=partialRectangle;connectable=0;fillColor=none;top=0;left=0;bottom=0;right=0;align=left;spacingLeft=6;overflow=hidden;" vertex="1" parent="0qfEpNYiTU8af2PPR3kj-34">
          <mxGeometry x="50" width="130" height="30" as="geometry" />
        </mxCell>
        <mxCell id="0qfEpNYiTU8af2PPR3kj-73" value="Viaggio" style="shape=table;startSize=30;container=1;collapsible=1;childLayout=tableLayout;fixedRows=1;rowLines=0;fontStyle=1;align=center;resizeLast=1;" vertex="1" parent="1">
          <mxGeometry x="480" y="40" width="180" height="270" as="geometry" />
        </mxCell>
        <mxCell id="0qfEpNYiTU8af2PPR3kj-74" value="" style="shape=partialRectangle;collapsible=0;dropTarget=0;pointerEvents=0;fillColor=none;top=0;left=0;bottom=0;right=0;points=[[0,0.5],[1,0.5]];portConstraint=eastwest;" vertex="1" parent="0qfEpNYiTU8af2PPR3kj-73">
          <mxGeometry y="30" width="180" height="30" as="geometry" />
        </mxCell>
        <mxCell id="0qfEpNYiTU8af2PPR3kj-75" value="PK,FK1" style="shape=partialRectangle;connectable=0;fillColor=none;top=0;left=0;bottom=0;right=0;fontStyle=1;overflow=hidden;" vertex="1" parent="0qfEpNYiTU8af2PPR3kj-74">
          <mxGeometry width="60" height="30" as="geometry" />
        </mxCell>
        <mxCell id="0qfEpNYiTU8af2PPR3kj-76" value="UserID" style="shape=partialRectangle;connectable=0;fillColor=none;top=0;left=0;bottom=0;right=0;align=left;spacingLeft=6;fontStyle=5;overflow=hidden;" vertex="1" parent="0qfEpNYiTU8af2PPR3kj-74">
          <mxGeometry x="60" width="120" height="30" as="geometry" />
        </mxCell>
        <mxCell id="0qfEpNYiTU8af2PPR3kj-86" value="" style="shape=partialRectangle;collapsible=0;dropTarget=0;pointerEvents=0;fillColor=none;top=0;left=0;bottom=0;right=0;points=[[0,0.5],[1,0.5]];portConstraint=eastwest;" vertex="1" parent="0qfEpNYiTU8af2PPR3kj-73">
          <mxGeometry y="60" width="180" height="30" as="geometry" />
        </mxCell>
        <mxCell id="0qfEpNYiTU8af2PPR3kj-87" value="FK2" style="shape=partialRectangle;connectable=0;fillColor=none;top=0;left=0;bottom=0;right=0;fontStyle=1;overflow=hidden;" vertex="1" parent="0qfEpNYiTU8af2PPR3kj-86">
          <mxGeometry width="60" height="30" as="geometry" />
        </mxCell>
        <mxCell id="0qfEpNYiTU8af2PPR3kj-88" value="AutistaCreator" style="shape=partialRectangle;connectable=0;fillColor=none;top=0;left=0;bottom=0;right=0;align=left;spacingLeft=6;fontStyle=5;overflow=hidden;" vertex="1" parent="0qfEpNYiTU8af2PPR3kj-86">
          <mxGeometry x="60" width="120" height="30" as="geometry" />
        </mxCell>
        <mxCell id="0qfEpNYiTU8af2PPR3kj-77" value="" style="shape=partialRectangle;collapsible=0;dropTarget=0;pointerEvents=0;fillColor=none;top=0;left=0;bottom=1;right=0;points=[[0,0.5],[1,0.5]];portConstraint=eastwest;" vertex="1" parent="0qfEpNYiTU8af2PPR3kj-73">
          <mxGeometry y="90" width="180" height="30" as="geometry" />
        </mxCell>
        <mxCell id="0qfEpNYiTU8af2PPR3kj-78" value="FK3" style="shape=partialRectangle;connectable=0;fillColor=none;top=0;left=0;bottom=0;right=0;fontStyle=1;overflow=hidden;" vertex="1" parent="0qfEpNYiTU8af2PPR3kj-77">
          <mxGeometry width="60" height="30" as="geometry" />
        </mxCell>
        <mxCell id="0qfEpNYiTU8af2PPR3kj-79" value="Comunepartenza" style="shape=partialRectangle;connectable=0;fillColor=none;top=0;left=0;bottom=0;right=0;align=left;spacingLeft=6;fontStyle=5;overflow=hidden;" vertex="1" parent="0qfEpNYiTU8af2PPR3kj-77">
          <mxGeometry x="60" width="120" height="30" as="geometry" />
        </mxCell>
        <mxCell id="0qfEpNYiTU8af2PPR3kj-80" value="" style="shape=partialRectangle;collapsible=0;dropTarget=0;pointerEvents=0;fillColor=none;top=0;left=0;bottom=0;right=0;points=[[0,0.5],[1,0.5]];portConstraint=eastwest;" vertex="1" parent="0qfEpNYiTU8af2PPR3kj-73">
          <mxGeometry y="120" width="180" height="30" as="geometry" />
        </mxCell>
        <mxCell id="0qfEpNYiTU8af2PPR3kj-81" value="FK3" style="shape=partialRectangle;connectable=0;fillColor=none;top=0;left=0;bottom=0;right=0;editable=1;overflow=hidden;" vertex="1" parent="0qfEpNYiTU8af2PPR3kj-80">
          <mxGeometry width="60" height="30" as="geometry" />
        </mxCell>
        <mxCell id="0qfEpNYiTU8af2PPR3kj-82" value="ComuneArrivo" style="shape=partialRectangle;connectable=0;fillColor=none;top=0;left=0;bottom=0;right=0;align=left;spacingLeft=6;overflow=hidden;" vertex="1" parent="0qfEpNYiTU8af2PPR3kj-80">
          <mxGeometry x="60" width="120" height="30" as="geometry" />
        </mxCell>
        <mxCell id="0qfEpNYiTU8af2PPR3kj-83" value="" style="shape=partialRectangle;collapsible=0;dropTarget=0;pointerEvents=0;fillColor=none;top=0;left=0;bottom=0;right=0;points=[[0,0.5],[1,0.5]];portConstraint=eastwest;" vertex="1" parent="0qfEpNYiTU8af2PPR3kj-73">
          <mxGeometry y="150" width="180" height="30" as="geometry" />
        </mxCell>
        <mxCell id="0qfEpNYiTU8af2PPR3kj-84" value="FK5" style="shape=partialRectangle;connectable=0;fillColor=none;top=0;left=0;bottom=0;right=0;editable=1;overflow=hidden;" vertex="1" parent="0qfEpNYiTU8af2PPR3kj-83">
          <mxGeometry width="60" height="30" as="geometry" />
        </mxCell>
        <mxCell id="0qfEpNYiTU8af2PPR3kj-85" value="TipoVeicolo" style="shape=partialRectangle;connectable=0;fillColor=none;top=0;left=0;bottom=0;right=0;align=left;spacingLeft=6;overflow=hidden;" vertex="1" parent="0qfEpNYiTU8af2PPR3kj-83">
          <mxGeometry x="60" width="120" height="30" as="geometry" />
        </mxCell>
        <mxCell id="0qfEpNYiTU8af2PPR3kj-171" style="shape=partialRectangle;collapsible=0;dropTarget=0;pointerEvents=0;fillColor=none;top=0;left=0;bottom=0;right=0;points=[[0,0.5],[1,0.5]];portConstraint=eastwest;" vertex="1" parent="0qfEpNYiTU8af2PPR3kj-73">
          <mxGeometry y="180" width="180" height="30" as="geometry" />
        </mxCell>
        <mxCell id="0qfEpNYiTU8af2PPR3kj-172" style="shape=partialRectangle;connectable=0;fillColor=none;top=0;left=0;bottom=0;right=0;editable=1;overflow=hidden;" vertex="1" parent="0qfEpNYiTU8af2PPR3kj-171">
          <mxGeometry width="60" height="30" as="geometry" />
        </mxCell>
        <mxCell id="0qfEpNYiTU8af2PPR3kj-173" value="datapartenza" style="shape=partialRectangle;connectable=0;fillColor=none;top=0;left=0;bottom=0;right=0;align=left;spacingLeft=6;overflow=hidden;" vertex="1" parent="0qfEpNYiTU8af2PPR3kj-171">
          <mxGeometry x="60" width="120" height="30" as="geometry" />
        </mxCell>
        <mxCell id="0qfEpNYiTU8af2PPR3kj-174" style="shape=partialRectangle;collapsible=0;dropTarget=0;pointerEvents=0;fillColor=none;top=0;left=0;bottom=0;right=0;points=[[0,0.5],[1,0.5]];portConstraint=eastwest;" vertex="1" parent="0qfEpNYiTU8af2PPR3kj-73">
          <mxGeometry y="210" width="180" height="30" as="geometry" />
        </mxCell>
        <mxCell id="0qfEpNYiTU8af2PPR3kj-175" style="shape=partialRectangle;connectable=0;fillColor=none;top=0;left=0;bottom=0;right=0;editable=1;overflow=hidden;" vertex="1" parent="0qfEpNYiTU8af2PPR3kj-174">
          <mxGeometry width="60" height="30" as="geometry" />
        </mxCell>
        <mxCell id="0qfEpNYiTU8af2PPR3kj-176" value="dataarrivo" style="shape=partialRectangle;connectable=0;fillColor=none;top=0;left=0;bottom=0;right=0;align=left;spacingLeft=6;overflow=hidden;" vertex="1" parent="0qfEpNYiTU8af2PPR3kj-174">
          <mxGeometry x="60" width="120" height="30" as="geometry" />
        </mxCell>
        <mxCell id="0qfEpNYiTU8af2PPR3kj-177" style="shape=partialRectangle;collapsible=0;dropTarget=0;pointerEvents=0;fillColor=none;top=0;left=0;bottom=0;right=0;points=[[0,0.5],[1,0.5]];portConstraint=eastwest;" vertex="1" parent="0qfEpNYiTU8af2PPR3kj-73">
          <mxGeometry y="240" width="180" height="30" as="geometry" />
        </mxCell>
        <mxCell id="0qfEpNYiTU8af2PPR3kj-178" style="shape=partialRectangle;connectable=0;fillColor=none;top=0;left=0;bottom=0;right=0;editable=1;overflow=hidden;" vertex="1" parent="0qfEpNYiTU8af2PPR3kj-177">
          <mxGeometry width="60" height="30" as="geometry" />
        </mxCell>
        <mxCell id="0qfEpNYiTU8af2PPR3kj-179" value="costo" style="shape=partialRectangle;connectable=0;fillColor=none;top=0;left=0;bottom=0;right=0;align=left;spacingLeft=6;overflow=hidden;" vertex="1" parent="0qfEpNYiTU8af2PPR3kj-177">
          <mxGeometry x="60" width="120" height="30" as="geometry" />
        </mxCell>
        <mxCell id="0qfEpNYiTU8af2PPR3kj-89" style="edgeStyle=orthogonalEdgeStyle;rounded=0;orthogonalLoop=1;jettySize=auto;html=1;exitX=1;exitY=0.5;exitDx=0;exitDy=0;entryX=0;entryY=0.5;entryDx=0;entryDy=0;" edge="1" parent="1" source="0qfEpNYiTU8af2PPR3kj-2" target="0qfEpNYiTU8af2PPR3kj-74">
          <mxGeometry relative="1" as="geometry" />
        </mxCell>
        <mxCell id="0qfEpNYiTU8af2PPR3kj-90" style="edgeStyle=orthogonalEdgeStyle;rounded=0;orthogonalLoop=1;jettySize=auto;html=1;exitX=1;exitY=0.5;exitDx=0;exitDy=0;entryX=0;entryY=0.5;entryDx=0;entryDy=0;" edge="1" parent="1" source="0qfEpNYiTU8af2PPR3kj-57" target="0qfEpNYiTU8af2PPR3kj-86">
          <mxGeometry relative="1" as="geometry" />
        </mxCell>
        <mxCell id="0qfEpNYiTU8af2PPR3kj-91" style="edgeStyle=orthogonalEdgeStyle;rounded=0;orthogonalLoop=1;jettySize=auto;html=1;entryX=0;entryY=0.5;entryDx=0;entryDy=0;" edge="1" parent="1" source="0qfEpNYiTU8af2PPR3kj-28" target="0qfEpNYiTU8af2PPR3kj-77">
          <mxGeometry relative="1" as="geometry">
            <Array as="points">
              <mxPoint x="330" y="435" />
              <mxPoint x="330" y="145" />
            </Array>
          </mxGeometry>
        </mxCell>
        <mxCell id="0qfEpNYiTU8af2PPR3kj-95" value="Guidatore" style="shape=table;startSize=30;container=1;collapsible=1;childLayout=tableLayout;fixedRows=1;rowLines=0;fontStyle=1;align=center;resizeLast=1;" vertex="1" parent="1">
          <mxGeometry x="80" y="680" width="180" height="150" as="geometry" />
        </mxCell>
        <mxCell id="0qfEpNYiTU8af2PPR3kj-96" value="" style="shape=partialRectangle;collapsible=0;dropTarget=0;pointerEvents=0;fillColor=none;top=0;left=0;bottom=1;right=0;points=[[0,0.5],[1,0.5]];portConstraint=eastwest;" vertex="1" parent="0qfEpNYiTU8af2PPR3kj-95">
          <mxGeometry y="30" width="180" height="30" as="geometry" />
        </mxCell>
        <mxCell id="0qfEpNYiTU8af2PPR3kj-97" value="PK" style="shape=partialRectangle;connectable=0;fillColor=none;top=0;left=0;bottom=0;right=0;fontStyle=1;overflow=hidden;" vertex="1" parent="0qfEpNYiTU8af2PPR3kj-96">
          <mxGeometry width="30" height="30" as="geometry" />
        </mxCell>
        <mxCell id="0qfEpNYiTU8af2PPR3kj-98" value="GuidatoreID" style="shape=partialRectangle;connectable=0;fillColor=none;top=0;left=0;bottom=0;right=0;align=left;spacingLeft=6;fontStyle=5;overflow=hidden;" vertex="1" parent="0qfEpNYiTU8af2PPR3kj-96">
          <mxGeometry x="30" width="150" height="30" as="geometry" />
        </mxCell>
        <mxCell id="0qfEpNYiTU8af2PPR3kj-108" style="shape=partialRectangle;collapsible=0;dropTarget=0;pointerEvents=0;fillColor=none;top=0;left=0;bottom=1;right=0;points=[[0,0.5],[1,0.5]];portConstraint=eastwest;" vertex="1" parent="0qfEpNYiTU8af2PPR3kj-95">
          <mxGeometry y="60" width="180" height="30" as="geometry" />
        </mxCell>
        <mxCell id="0qfEpNYiTU8af2PPR3kj-109" value="FK1" style="shape=partialRectangle;connectable=0;fillColor=none;top=0;left=0;bottom=0;right=0;fontStyle=1;overflow=hidden;" vertex="1" parent="0qfEpNYiTU8af2PPR3kj-108">
          <mxGeometry width="30" height="30" as="geometry" />
        </mxCell>
        <mxCell id="0qfEpNYiTU8af2PPR3kj-110" value="UserID" style="shape=partialRectangle;connectable=0;fillColor=none;top=0;left=0;bottom=0;right=0;align=left;spacingLeft=6;fontStyle=5;overflow=hidden;" vertex="1" parent="0qfEpNYiTU8af2PPR3kj-108">
          <mxGeometry x="30" width="150" height="30" as="geometry" />
        </mxCell>
        <mxCell id="0qfEpNYiTU8af2PPR3kj-112" style="shape=partialRectangle;collapsible=0;dropTarget=0;pointerEvents=0;fillColor=none;top=0;left=0;bottom=1;right=0;points=[[0,0.5],[1,0.5]];portConstraint=eastwest;" vertex="1" parent="0qfEpNYiTU8af2PPR3kj-95">
          <mxGeometry y="90" width="180" height="30" as="geometry" />
        </mxCell>
        <mxCell id="0qfEpNYiTU8af2PPR3kj-113" value="FK5" style="shape=partialRectangle;connectable=0;fillColor=none;top=0;left=0;bottom=0;right=0;fontStyle=1;overflow=hidden;" vertex="1" parent="0qfEpNYiTU8af2PPR3kj-112">
          <mxGeometry width="30" height="30" as="geometry" />
        </mxCell>
        <mxCell id="0qfEpNYiTU8af2PPR3kj-114" value="TipoVeicolo" style="shape=partialRectangle;connectable=0;fillColor=none;top=0;left=0;bottom=0;right=0;align=left;spacingLeft=6;fontStyle=5;overflow=hidden;" vertex="1" parent="0qfEpNYiTU8af2PPR3kj-112">
          <mxGeometry x="30" width="150" height="30" as="geometry" />
        </mxCell>
        <mxCell id="0qfEpNYiTU8af2PPR3kj-121" style="shape=partialRectangle;collapsible=0;dropTarget=0;pointerEvents=0;fillColor=none;top=0;left=0;bottom=1;right=0;points=[[0,0.5],[1,0.5]];portConstraint=eastwest;" vertex="1" parent="0qfEpNYiTU8af2PPR3kj-95">
          <mxGeometry y="120" width="180" height="30" as="geometry" />
        </mxCell>
        <mxCell id="0qfEpNYiTU8af2PPR3kj-122" value="FK6" style="shape=partialRectangle;connectable=0;fillColor=none;top=0;left=0;bottom=0;right=0;fontStyle=1;overflow=hidden;" vertex="1" parent="0qfEpNYiTU8af2PPR3kj-121">
          <mxGeometry width="30" height="30" as="geometry" />
        </mxCell>
        <mxCell id="0qfEpNYiTU8af2PPR3kj-123" value="Feedback" style="shape=partialRectangle;connectable=0;fillColor=none;top=0;left=0;bottom=0;right=0;align=left;spacingLeft=6;fontStyle=5;overflow=hidden;" vertex="1" parent="0qfEpNYiTU8af2PPR3kj-121">
          <mxGeometry x="30" width="150" height="30" as="geometry" />
        </mxCell>
        <mxCell id="0qfEpNYiTU8af2PPR3kj-111" style="edgeStyle=orthogonalEdgeStyle;rounded=0;orthogonalLoop=1;jettySize=auto;html=1;exitX=1;exitY=0.5;exitDx=0;exitDy=0;entryX=1;entryY=0.5;entryDx=0;entryDy=0;" edge="1" parent="1" source="0qfEpNYiTU8af2PPR3kj-2" target="0qfEpNYiTU8af2PPR3kj-108">
          <mxGeometry relative="1" as="geometry">
            <Array as="points">
              <mxPoint x="305" y="85" />
              <mxPoint x="305" y="755" />
            </Array>
          </mxGeometry>
        </mxCell>
        <mxCell id="0qfEpNYiTU8af2PPR3kj-128" style="edgeStyle=orthogonalEdgeStyle;rounded=0;orthogonalLoop=1;jettySize=auto;html=1;exitX=1;exitY=0.5;exitDx=0;exitDy=0;entryX=0;entryY=0.5;entryDx=0;entryDy=0;" edge="1" parent="1" source="0qfEpNYiTU8af2PPR3kj-112" target="0qfEpNYiTU8af2PPR3kj-83">
          <mxGeometry relative="1" as="geometry" />
        </mxCell>
        <mxCell id="0qfEpNYiTU8af2PPR3kj-138" style="edgeStyle=orthogonalEdgeStyle;rounded=0;orthogonalLoop=1;jettySize=auto;html=1;entryX=0;entryY=0.5;entryDx=0;entryDy=0;" edge="1" parent="1" source="0qfEpNYiTU8af2PPR3kj-28" target="0qfEpNYiTU8af2PPR3kj-80">
          <mxGeometry relative="1" as="geometry">
            <Array as="points">
              <mxPoint x="330" y="435" />
              <mxPoint x="330" y="175" />
            </Array>
          </mxGeometry>
        </mxCell>
        <mxCell id="0qfEpNYiTU8af2PPR3kj-145" value="Veicoli" style="shape=table;startSize=30;container=1;collapsible=1;childLayout=tableLayout;fixedRows=1;rowLines=0;fontStyle=1;align=center;resizeLast=1;fillColor=none;" vertex="1" parent="1">
          <mxGeometry x="80" y="870" width="180" height="220" as="geometry" />
        </mxCell>
        <mxCell id="0qfEpNYiTU8af2PPR3kj-146" value="" style="shape=partialRectangle;collapsible=0;dropTarget=0;pointerEvents=0;fillColor=none;top=0;left=0;bottom=1;right=0;points=[[0,0.5],[1,0.5]];portConstraint=eastwest;" vertex="1" parent="0qfEpNYiTU8af2PPR3kj-145">
          <mxGeometry y="30" width="180" height="30" as="geometry" />
        </mxCell>
        <mxCell id="0qfEpNYiTU8af2PPR3kj-147" value="PK" style="shape=partialRectangle;connectable=0;fillColor=none;top=0;left=0;bottom=0;right=0;fontStyle=1;overflow=hidden;" vertex="1" parent="0qfEpNYiTU8af2PPR3kj-146">
          <mxGeometry width="30" height="30" as="geometry" />
        </mxCell>
        <mxCell id="0qfEpNYiTU8af2PPR3kj-148" value="VeicoloID" style="shape=partialRectangle;connectable=0;fillColor=none;top=0;left=0;bottom=0;right=0;align=left;spacingLeft=6;fontStyle=5;overflow=hidden;" vertex="1" parent="0qfEpNYiTU8af2PPR3kj-146">
          <mxGeometry x="30" width="150" height="30" as="geometry" />
        </mxCell>
        <mxCell id="0qfEpNYiTU8af2PPR3kj-164" style="shape=partialRectangle;collapsible=0;dropTarget=0;pointerEvents=0;fillColor=none;top=0;left=0;bottom=1;right=0;points=[[0,0.5],[1,0.5]];portConstraint=eastwest;" vertex="1" parent="0qfEpNYiTU8af2PPR3kj-145">
          <mxGeometry y="60" width="180" height="30" as="geometry" />
        </mxCell>
        <mxCell id="0qfEpNYiTU8af2PPR3kj-165" style="shape=partialRectangle;connectable=0;fillColor=none;top=0;left=0;bottom=0;right=0;fontStyle=1;overflow=hidden;" vertex="1" parent="0qfEpNYiTU8af2PPR3kj-164">
          <mxGeometry width="30" height="30" as="geometry" />
        </mxCell>
        <mxCell id="0qfEpNYiTU8af2PPR3kj-166" value="UserID" style="shape=partialRectangle;connectable=0;fillColor=none;top=0;left=0;bottom=0;right=0;align=left;spacingLeft=6;fontStyle=5;overflow=hidden;" vertex="1" parent="0qfEpNYiTU8af2PPR3kj-164">
          <mxGeometry x="30" width="150" height="30" as="geometry" />
        </mxCell>
        <mxCell id="0qfEpNYiTU8af2PPR3kj-149" value="" style="shape=partialRectangle;collapsible=0;dropTarget=0;pointerEvents=0;fillColor=none;top=0;left=0;bottom=0;right=0;points=[[0,0.5],[1,0.5]];portConstraint=eastwest;" vertex="1" parent="0qfEpNYiTU8af2PPR3kj-145">
          <mxGeometry y="90" width="180" height="30" as="geometry" />
        </mxCell>
        <mxCell id="0qfEpNYiTU8af2PPR3kj-150" value="" style="shape=partialRectangle;connectable=0;fillColor=none;top=0;left=0;bottom=0;right=0;editable=1;overflow=hidden;" vertex="1" parent="0qfEpNYiTU8af2PPR3kj-149">
          <mxGeometry width="30" height="30" as="geometry" />
        </mxCell>
        <mxCell id="0qfEpNYiTU8af2PPR3kj-151" value="marca" style="shape=partialRectangle;connectable=0;fillColor=none;top=0;left=0;bottom=0;right=0;align=left;spacingLeft=6;overflow=hidden;" vertex="1" parent="0qfEpNYiTU8af2PPR3kj-149">
          <mxGeometry x="30" width="150" height="30" as="geometry" />
        </mxCell>
        <mxCell id="0qfEpNYiTU8af2PPR3kj-152" value="" style="shape=partialRectangle;collapsible=0;dropTarget=0;pointerEvents=0;fillColor=none;top=0;left=0;bottom=0;right=0;points=[[0,0.5],[1,0.5]];portConstraint=eastwest;" vertex="1" parent="0qfEpNYiTU8af2PPR3kj-145">
          <mxGeometry y="120" width="180" height="30" as="geometry" />
        </mxCell>
        <mxCell id="0qfEpNYiTU8af2PPR3kj-153" value="" style="shape=partialRectangle;connectable=0;fillColor=none;top=0;left=0;bottom=0;right=0;editable=1;overflow=hidden;" vertex="1" parent="0qfEpNYiTU8af2PPR3kj-152">
          <mxGeometry width="30" height="30" as="geometry" />
        </mxCell>
        <mxCell id="0qfEpNYiTU8af2PPR3kj-154" value="modello" style="shape=partialRectangle;connectable=0;fillColor=none;top=0;left=0;bottom=0;right=0;align=left;spacingLeft=6;overflow=hidden;" vertex="1" parent="0qfEpNYiTU8af2PPR3kj-152">
          <mxGeometry x="30" width="150" height="30" as="geometry" />
        </mxCell>
        <mxCell id="0qfEpNYiTU8af2PPR3kj-155" value="" style="shape=partialRectangle;collapsible=0;dropTarget=0;pointerEvents=0;fillColor=none;top=0;left=0;bottom=0;right=0;points=[[0,0.5],[1,0.5]];portConstraint=eastwest;" vertex="1" parent="0qfEpNYiTU8af2PPR3kj-145">
          <mxGeometry y="150" width="180" height="30" as="geometry" />
        </mxCell>
        <mxCell id="0qfEpNYiTU8af2PPR3kj-156" value="" style="shape=partialRectangle;connectable=0;fillColor=none;top=0;left=0;bottom=0;right=0;editable=1;overflow=hidden;" vertex="1" parent="0qfEpNYiTU8af2PPR3kj-155">
          <mxGeometry width="30" height="30" as="geometry" />
        </mxCell>
        <mxCell id="0qfEpNYiTU8af2PPR3kj-157" value="targa" style="shape=partialRectangle;connectable=0;fillColor=none;top=0;left=0;bottom=0;right=0;align=left;spacingLeft=6;overflow=hidden;" vertex="1" parent="0qfEpNYiTU8af2PPR3kj-155">
          <mxGeometry x="30" width="150" height="30" as="geometry" />
        </mxCell>
        <mxCell id="0qfEpNYiTU8af2PPR3kj-158" style="shape=partialRectangle;collapsible=0;dropTarget=0;pointerEvents=0;fillColor=none;top=0;left=0;bottom=0;right=0;points=[[0,0.5],[1,0.5]];portConstraint=eastwest;" vertex="1" parent="0qfEpNYiTU8af2PPR3kj-145">
          <mxGeometry y="180" width="180" height="30" as="geometry" />
        </mxCell>
        <mxCell id="0qfEpNYiTU8af2PPR3kj-159" style="shape=partialRectangle;connectable=0;fillColor=none;top=0;left=0;bottom=0;right=0;editable=1;overflow=hidden;" vertex="1" parent="0qfEpNYiTU8af2PPR3kj-158">
          <mxGeometry width="30" height="30" as="geometry" />
        </mxCell>
        <mxCell id="0qfEpNYiTU8af2PPR3kj-160" value="maxposti" style="shape=partialRectangle;connectable=0;fillColor=none;top=0;left=0;bottom=0;right=0;align=left;spacingLeft=6;overflow=hidden;" vertex="1" parent="0qfEpNYiTU8af2PPR3kj-158">
          <mxGeometry x="30" width="150" height="30" as="geometry" />
        </mxCell>
        <mxCell id="0qfEpNYiTU8af2PPR3kj-167" style="edgeStyle=orthogonalEdgeStyle;rounded=0;orthogonalLoop=1;jettySize=auto;html=1;exitX=1;exitY=0.5;exitDx=0;exitDy=0;entryX=1;entryY=0.5;entryDx=0;entryDy=0;" edge="1" parent="1" source="0qfEpNYiTU8af2PPR3kj-2" target="0qfEpNYiTU8af2PPR3kj-164">
          <mxGeometry relative="1" as="geometry" />
        </mxCell>
        <mxCell id="0qfEpNYiTU8af2PPR3kj-180" value="Passeggeri" style="shape=table;startSize=30;container=1;collapsible=1;childLayout=tableLayout;fixedRows=1;rowLines=0;fontStyle=1;align=center;resizeLast=1;fillColor=none;" vertex="1" parent="1">
          <mxGeometry x="480" y="360" width="180" height="220" as="geometry" />
        </mxCell>
        <mxCell id="0qfEpNYiTU8af2PPR3kj-181" value="" style="shape=partialRectangle;collapsible=0;dropTarget=0;pointerEvents=0;fillColor=none;top=0;left=0;bottom=1;right=0;points=[[0,0.5],[1,0.5]];portConstraint=eastwest;" vertex="1" parent="0qfEpNYiTU8af2PPR3kj-180">
          <mxGeometry y="30" width="180" height="30" as="geometry" />
        </mxCell>
        <mxCell id="0qfEpNYiTU8af2PPR3kj-182" value="PK" style="shape=partialRectangle;connectable=0;fillColor=none;top=0;left=0;bottom=0;right=0;fontStyle=1;overflow=hidden;" vertex="1" parent="0qfEpNYiTU8af2PPR3kj-181">
          <mxGeometry width="30" height="30" as="geometry" />
        </mxCell>
        <mxCell id="0qfEpNYiTU8af2PPR3kj-183" value="PassengerID" style="shape=partialRectangle;connectable=0;fillColor=none;top=0;left=0;bottom=0;right=0;align=left;spacingLeft=6;fontStyle=5;overflow=hidden;" vertex="1" parent="0qfEpNYiTU8af2PPR3kj-181">
          <mxGeometry x="30" width="150" height="30" as="geometry" />
        </mxCell>
        <mxCell id="0qfEpNYiTU8af2PPR3kj-184" value="" style="shape=partialRectangle;collapsible=0;dropTarget=0;pointerEvents=0;fillColor=none;top=0;left=0;bottom=0;right=0;points=[[0,0.5],[1,0.5]];portConstraint=eastwest;" vertex="1" parent="0qfEpNYiTU8af2PPR3kj-180">
          <mxGeometry y="60" width="180" height="30" as="geometry" />
        </mxCell>
        <mxCell id="0qfEpNYiTU8af2PPR3kj-185" value="fk2" style="shape=partialRectangle;connectable=0;fillColor=none;top=0;left=0;bottom=0;right=0;editable=1;overflow=hidden;" vertex="1" parent="0qfEpNYiTU8af2PPR3kj-184">
          <mxGeometry width="30" height="30" as="geometry" />
        </mxCell>
        <mxCell id="0qfEpNYiTU8af2PPR3kj-186" value="Username riporta user" style="shape=partialRectangle;connectable=0;fillColor=none;top=0;left=0;bottom=0;right=0;align=left;spacingLeft=6;overflow=hidden;" vertex="1" parent="0qfEpNYiTU8af2PPR3kj-184">
          <mxGeometry x="30" width="150" height="30" as="geometry" />
        </mxCell>
        <mxCell id="0qfEpNYiTU8af2PPR3kj-187" value="" style="shape=partialRectangle;collapsible=0;dropTarget=0;pointerEvents=0;fillColor=none;top=0;left=0;bottom=0;right=0;points=[[0,0.5],[1,0.5]];portConstraint=eastwest;" vertex="1" parent="0qfEpNYiTU8af2PPR3kj-180">
          <mxGeometry y="90" width="180" height="30" as="geometry" />
        </mxCell>
        <mxCell id="0qfEpNYiTU8af2PPR3kj-188" value="" style="shape=partialRectangle;connectable=0;fillColor=none;top=0;left=0;bottom=0;right=0;editable=1;overflow=hidden;" vertex="1" parent="0qfEpNYiTU8af2PPR3kj-187">
          <mxGeometry width="30" height="30" as="geometry" />
        </mxCell>
        <mxCell id="0qfEpNYiTU8af2PPR3kj-189" value="viaggio" style="shape=partialRectangle;connectable=0;fillColor=none;top=0;left=0;bottom=0;right=0;align=left;spacingLeft=6;overflow=hidden;" vertex="1" parent="0qfEpNYiTU8af2PPR3kj-187">
          <mxGeometry x="30" width="150" height="30" as="geometry" />
        </mxCell>
        <mxCell id="0qfEpNYiTU8af2PPR3kj-190" value="" style="shape=partialRectangle;collapsible=0;dropTarget=0;pointerEvents=0;fillColor=none;top=0;left=0;bottom=0;right=0;points=[[0,0.5],[1,0.5]];portConstraint=eastwest;" vertex="1" parent="0qfEpNYiTU8af2PPR3kj-180">
          <mxGeometry y="120" width="180" height="30" as="geometry" />
        </mxCell>
        <mxCell id="0qfEpNYiTU8af2PPR3kj-191" value="" style="shape=partialRectangle;connectable=0;fillColor=none;top=0;left=0;bottom=0;right=0;editable=1;overflow=hidden;" vertex="1" parent="0qfEpNYiTU8af2PPR3kj-190">
          <mxGeometry width="30" height="30" as="geometry" />
        </mxCell>
        <mxCell id="0qfEpNYiTU8af2PPR3kj-192" value="accettazione" style="shape=partialRectangle;connectable=0;fillColor=none;top=0;left=0;bottom=0;right=0;align=left;spacingLeft=6;overflow=hidden;" vertex="1" parent="0qfEpNYiTU8af2PPR3kj-190">
          <mxGeometry x="30" width="150" height="30" as="geometry" />
        </mxCell>
        <mxCell id="0qfEpNYiTU8af2PPR3kj-194" style="shape=partialRectangle;collapsible=0;dropTarget=0;pointerEvents=0;fillColor=none;top=0;left=0;bottom=0;right=0;points=[[0,0.5],[1,0.5]];portConstraint=eastwest;" vertex="1" parent="0qfEpNYiTU8af2PPR3kj-180">
          <mxGeometry y="150" width="180" height="30" as="geometry" />
        </mxCell>
        <mxCell id="0qfEpNYiTU8af2PPR3kj-195" style="shape=partialRectangle;connectable=0;fillColor=none;top=0;left=0;bottom=0;right=0;editable=1;overflow=hidden;" vertex="1" parent="0qfEpNYiTU8af2PPR3kj-194">
          <mxGeometry width="30" height="30" as="geometry" />
        </mxCell>
        <mxCell id="0qfEpNYiTU8af2PPR3kj-196" value="votaguidatore" style="shape=partialRectangle;connectable=0;fillColor=none;top=0;left=0;bottom=0;right=0;align=left;spacingLeft=6;overflow=hidden;" vertex="1" parent="0qfEpNYiTU8af2PPR3kj-194">
          <mxGeometry x="30" width="150" height="30" as="geometry" />
        </mxCell>
        <mxCell id="0qfEpNYiTU8af2PPR3kj-197" style="shape=partialRectangle;collapsible=0;dropTarget=0;pointerEvents=0;fillColor=none;top=0;left=0;bottom=0;right=0;points=[[0,0.5],[1,0.5]];portConstraint=eastwest;" vertex="1" parent="0qfEpNYiTU8af2PPR3kj-180">
          <mxGeometry y="180" width="180" height="30" as="geometry" />
        </mxCell>
        <mxCell id="0qfEpNYiTU8af2PPR3kj-198" style="shape=partialRectangle;connectable=0;fillColor=none;top=0;left=0;bottom=0;right=0;editable=1;overflow=hidden;" vertex="1" parent="0qfEpNYiTU8af2PPR3kj-197">
          <mxGeometry width="30" height="30" as="geometry" />
        </mxCell>
        <mxCell id="0qfEpNYiTU8af2PPR3kj-199" value="commentoguidatore" style="shape=partialRectangle;connectable=0;fillColor=none;top=0;left=0;bottom=0;right=0;align=left;spacingLeft=6;overflow=hidden;" vertex="1" parent="0qfEpNYiTU8af2PPR3kj-197">
          <mxGeometry x="30" width="150" height="30" as="geometry" />
        </mxCell>
        <mxCell id="0qfEpNYiTU8af2PPR3kj-193" style="edgeStyle=orthogonalEdgeStyle;rounded=0;orthogonalLoop=1;jettySize=auto;html=1;exitX=1;exitY=0.5;exitDx=0;exitDy=0;entryX=0;entryY=0.5;entryDx=0;entryDy=0;" edge="1" parent="1" source="0qfEpNYiTU8af2PPR3kj-57" target="0qfEpNYiTU8af2PPR3kj-184">
          <mxGeometry relative="1" as="geometry">
            <Array as="points">
              <mxPoint x="420" y="115" />
              <mxPoint x="420" y="435" />
            </Array>
          </mxGeometry>
        </mxCell>
        <mxCell id="0qfEpNYiTU8af2PPR3kj-200" value="commentoguidatore" style="shape=table;startSize=30;container=1;collapsible=1;childLayout=tableLayout;fixedRows=1;rowLines=0;fontStyle=1;align=center;resizeLast=1;fillColor=none;" vertex="1" parent="1">
          <mxGeometry x="480" y="600" width="180" height="160" as="geometry" />
        </mxCell>
        <mxCell id="0qfEpNYiTU8af2PPR3kj-201" value="" style="shape=partialRectangle;collapsible=0;dropTarget=0;pointerEvents=0;fillColor=none;top=0;left=0;bottom=1;right=0;points=[[0,0.5],[1,0.5]];portConstraint=eastwest;" vertex="1" parent="0qfEpNYiTU8af2PPR3kj-200">
          <mxGeometry y="30" width="180" height="30" as="geometry" />
        </mxCell>
        <mxCell id="0qfEpNYiTU8af2PPR3kj-202" value="PK" style="shape=partialRectangle;connectable=0;fillColor=none;top=0;left=0;bottom=0;right=0;fontStyle=1;overflow=hidden;" vertex="1" parent="0qfEpNYiTU8af2PPR3kj-201">
          <mxGeometry width="30" height="30" as="geometry" />
        </mxCell>
        <mxCell id="0qfEpNYiTU8af2PPR3kj-203" value="id_commGuido" style="shape=partialRectangle;connectable=0;fillColor=none;top=0;left=0;bottom=0;right=0;align=left;spacingLeft=6;fontStyle=5;overflow=hidden;" vertex="1" parent="0qfEpNYiTU8af2PPR3kj-201">
          <mxGeometry x="30" width="150" height="30" as="geometry" />
        </mxCell>
        <mxCell id="0qfEpNYiTU8af2PPR3kj-204" value="" style="shape=partialRectangle;collapsible=0;dropTarget=0;pointerEvents=0;fillColor=none;top=0;left=0;bottom=0;right=0;points=[[0,0.5],[1,0.5]];portConstraint=eastwest;" vertex="1" parent="0qfEpNYiTU8af2PPR3kj-200">
          <mxGeometry y="60" width="180" height="30" as="geometry" />
        </mxCell>
        <mxCell id="0qfEpNYiTU8af2PPR3kj-205" value="" style="shape=partialRectangle;connectable=0;fillColor=none;top=0;left=0;bottom=0;right=0;editable=1;overflow=hidden;" vertex="1" parent="0qfEpNYiTU8af2PPR3kj-204">
          <mxGeometry width="30" height="30" as="geometry" />
        </mxCell>
        <mxCell id="0qfEpNYiTU8af2PPR3kj-206" value="id_passeggero" style="shape=partialRectangle;connectable=0;fillColor=none;top=0;left=0;bottom=0;right=0;align=left;spacingLeft=6;overflow=hidden;" vertex="1" parent="0qfEpNYiTU8af2PPR3kj-204">
          <mxGeometry x="30" width="150" height="30" as="geometry" />
        </mxCell>
        <mxCell id="0qfEpNYiTU8af2PPR3kj-207" value="" style="shape=partialRectangle;collapsible=0;dropTarget=0;pointerEvents=0;fillColor=none;top=0;left=0;bottom=0;right=0;points=[[0,0.5],[1,0.5]];portConstraint=eastwest;" vertex="1" parent="0qfEpNYiTU8af2PPR3kj-200">
          <mxGeometry y="90" width="180" height="30" as="geometry" />
        </mxCell>
        <mxCell id="0qfEpNYiTU8af2PPR3kj-208" value="" style="shape=partialRectangle;connectable=0;fillColor=none;top=0;left=0;bottom=0;right=0;editable=1;overflow=hidden;" vertex="1" parent="0qfEpNYiTU8af2PPR3kj-207">
          <mxGeometry width="30" height="30" as="geometry" />
        </mxCell>
        <mxCell id="0qfEpNYiTU8af2PPR3kj-209" value="votoGuid" style="shape=partialRectangle;connectable=0;fillColor=none;top=0;left=0;bottom=0;right=0;align=left;spacingLeft=6;overflow=hidden;" vertex="1" parent="0qfEpNYiTU8af2PPR3kj-207">
          <mxGeometry x="30" width="150" height="30" as="geometry" />
        </mxCell>
        <mxCell id="0qfEpNYiTU8af2PPR3kj-210" value="" style="shape=partialRectangle;collapsible=0;dropTarget=0;pointerEvents=0;fillColor=none;top=0;left=0;bottom=0;right=0;points=[[0,0.5],[1,0.5]];portConstraint=eastwest;" vertex="1" parent="0qfEpNYiTU8af2PPR3kj-200">
          <mxGeometry y="120" width="180" height="30" as="geometry" />
        </mxCell>
        <mxCell id="0qfEpNYiTU8af2PPR3kj-211" value="" style="shape=partialRectangle;connectable=0;fillColor=none;top=0;left=0;bottom=0;right=0;editable=1;overflow=hidden;" vertex="1" parent="0qfEpNYiTU8af2PPR3kj-210">
          <mxGeometry width="30" height="30" as="geometry" />
        </mxCell>
        <mxCell id="0qfEpNYiTU8af2PPR3kj-212" value="CommentoGuido" style="shape=partialRectangle;connectable=0;fillColor=none;top=0;left=0;bottom=0;right=0;align=left;spacingLeft=6;overflow=hidden;" vertex="1" parent="0qfEpNYiTU8af2PPR3kj-210">
          <mxGeometry x="30" width="150" height="30" as="geometry" />
        </mxCell>
        <mxCell id="0qfEpNYiTU8af2PPR3kj-213" value="commentopasseggero" style="shape=table;startSize=30;container=1;collapsible=1;childLayout=tableLayout;fixedRows=1;rowLines=0;fontStyle=1;align=center;resizeLast=1;fillColor=none;" vertex="1" parent="1">
          <mxGeometry x="480" y="800" width="180" height="160" as="geometry" />
        </mxCell>
        <mxCell id="0qfEpNYiTU8af2PPR3kj-214" value="" style="shape=partialRectangle;collapsible=0;dropTarget=0;pointerEvents=0;fillColor=none;top=0;left=0;bottom=1;right=0;points=[[0,0.5],[1,0.5]];portConstraint=eastwest;" vertex="1" parent="0qfEpNYiTU8af2PPR3kj-213">
          <mxGeometry y="30" width="180" height="30" as="geometry" />
        </mxCell>
        <mxCell id="0qfEpNYiTU8af2PPR3kj-215" value="PK" style="shape=partialRectangle;connectable=0;fillColor=none;top=0;left=0;bottom=0;right=0;fontStyle=1;overflow=hidden;" vertex="1" parent="0qfEpNYiTU8af2PPR3kj-214">
          <mxGeometry width="30" height="30" as="geometry" />
        </mxCell>
        <mxCell id="0qfEpNYiTU8af2PPR3kj-216" value="id_commentoPass" style="shape=partialRectangle;connectable=0;fillColor=none;top=0;left=0;bottom=0;right=0;align=left;spacingLeft=6;fontStyle=5;overflow=hidden;" vertex="1" parent="0qfEpNYiTU8af2PPR3kj-214">
          <mxGeometry x="30" width="150" height="30" as="geometry" />
        </mxCell>
        <mxCell id="0qfEpNYiTU8af2PPR3kj-217" value="" style="shape=partialRectangle;collapsible=0;dropTarget=0;pointerEvents=0;fillColor=none;top=0;left=0;bottom=0;right=0;points=[[0,0.5],[1,0.5]];portConstraint=eastwest;" vertex="1" parent="0qfEpNYiTU8af2PPR3kj-213">
          <mxGeometry y="60" width="180" height="30" as="geometry" />
        </mxCell>
        <mxCell id="0qfEpNYiTU8af2PPR3kj-218" value="" style="shape=partialRectangle;connectable=0;fillColor=none;top=0;left=0;bottom=0;right=0;editable=1;overflow=hidden;" vertex="1" parent="0qfEpNYiTU8af2PPR3kj-217">
          <mxGeometry width="30" height="30" as="geometry" />
        </mxCell>
        <mxCell id="0qfEpNYiTU8af2PPR3kj-219" value="id_pass" style="shape=partialRectangle;connectable=0;fillColor=none;top=0;left=0;bottom=0;right=0;align=left;spacingLeft=6;overflow=hidden;" vertex="1" parent="0qfEpNYiTU8af2PPR3kj-217">
          <mxGeometry x="30" width="150" height="30" as="geometry" />
        </mxCell>
        <mxCell id="0qfEpNYiTU8af2PPR3kj-220" value="" style="shape=partialRectangle;collapsible=0;dropTarget=0;pointerEvents=0;fillColor=none;top=0;left=0;bottom=0;right=0;points=[[0,0.5],[1,0.5]];portConstraint=eastwest;" vertex="1" parent="0qfEpNYiTU8af2PPR3kj-213">
          <mxGeometry y="90" width="180" height="30" as="geometry" />
        </mxCell>
        <mxCell id="0qfEpNYiTU8af2PPR3kj-221" value="" style="shape=partialRectangle;connectable=0;fillColor=none;top=0;left=0;bottom=0;right=0;editable=1;overflow=hidden;" vertex="1" parent="0qfEpNYiTU8af2PPR3kj-220">
          <mxGeometry width="30" height="30" as="geometry" />
        </mxCell>
        <mxCell id="0qfEpNYiTU8af2PPR3kj-222" value="votoPass" style="shape=partialRectangle;connectable=0;fillColor=none;top=0;left=0;bottom=0;right=0;align=left;spacingLeft=6;overflow=hidden;" vertex="1" parent="0qfEpNYiTU8af2PPR3kj-220">
          <mxGeometry x="30" width="150" height="30" as="geometry" />
        </mxCell>
        <mxCell id="0qfEpNYiTU8af2PPR3kj-223" value="" style="shape=partialRectangle;collapsible=0;dropTarget=0;pointerEvents=0;fillColor=none;top=0;left=0;bottom=0;right=0;points=[[0,0.5],[1,0.5]];portConstraint=eastwest;" vertex="1" parent="0qfEpNYiTU8af2PPR3kj-213">
          <mxGeometry y="120" width="180" height="30" as="geometry" />
        </mxCell>
        <mxCell id="0qfEpNYiTU8af2PPR3kj-224" value="" style="shape=partialRectangle;connectable=0;fillColor=none;top=0;left=0;bottom=0;right=0;editable=1;overflow=hidden;" vertex="1" parent="0qfEpNYiTU8af2PPR3kj-223">
          <mxGeometry width="30" height="30" as="geometry" />
        </mxCell>
        <mxCell id="0qfEpNYiTU8af2PPR3kj-225" value="commentoPass" style="shape=partialRectangle;connectable=0;fillColor=none;top=0;left=0;bottom=0;right=0;align=left;spacingLeft=6;overflow=hidden;" vertex="1" parent="0qfEpNYiTU8af2PPR3kj-223">
          <mxGeometry x="30" width="150" height="30" as="geometry" />
        </mxCell>
      </root>
    </mxGraphModel>
  </diagram>
</mxfile>
